<?xml version="1.0" encoding="utf-8"?><svg version="1.1" id="Layer_1" xmlns="http://www.w3.org/2000/svg" xmlns:xlink="http://www.w3.org/1999/xlink" x="0px" y="0px" viewBox="0 0 114.37 122.88" style="enable-background:new 0 0 114.37 122.88" xml:space="preserve"><style type="text/css">.st0{fill-rule:evenodd;clip-rule:evenodd;}</style><g><path class="st0" d="M111.15,74.12c-3.07,1.77-7.03,0.71-8.8-2.36l-5.88-10.18c0,16.5,0.21,37.38,0.21,53.9 c0,4.07-3.33,7.39-7.39,7.39c-4.07,0-7.39-3.33-7.39-7.39V82.93h-4.15v32.56c0,4.07-3.33,7.39-7.39,7.39 c-4.07,0-7.39-3.33-7.39-7.39c0-16.44,0.19-37.24,0.19-53.65l-5.73,9.93c-1.77,3.07-5.73,4.13-8.8,2.36 c-3.07-1.77-4.13-5.73-2.36-8.8l14.99-25.96c5.35-9.26,31.27-10.4,37.04-0.41l15.22,26.37C115.28,68.39,114.22,72.35,111.15,74.12 L111.15,74.12L111.15,74.12z M25.76,90.76c-1.21,0-2.18-0.84-2.18-1.88s0.98-1.88,2.18-1.88h7.18V76.44H17.97 c-1.21,0-2.18-0.84-2.18-1.88c0-1.04,0.98-1.88,2.18-1.88h14.97V60.92h-7.18c-1.21,0-2.18-0.84-2.18-1.88 c0-1.04,0.98-1.88,2.18-1.88h7.18V46.38H17.97c-1.21,0-2.18-0.84-2.18-1.88c0-1.04,0.98-1.88,2.18-1.88h14.97V31.27h-7.18 c-1.21,0-2.18-0.84-2.18-1.88s0.98-1.88,2.18-1.88h7.18v-11.2H17.97c-1.21,0-2.18-0.84-2.18-1.88s0.98-1.88,2.18-1.88h14.97V4.42 H3.81v112.59h29.13V105.9H17.97c-1.21,0-2.18-0.84-2.18-1.88c0-1.04,0.98-1.88,2.18-1.88h14.97V90.76H25.76L25.76,90.76z M2.09,0.61h32.57c0.57,0,1.09,0.23,1.47,0.62c0.38,0.38,0.62,0.9,0.62,1.47v116.03c0,0.57-0.23,1.09-0.62,1.47 c-0.38,0.39-0.91,0.62-1.47,0.62H2.09c-0.57,0-1.09-0.23-1.47-0.62C0.23,119.82,0,119.3,0,118.73V2.7c0-0.57,0.23-1.09,0.62-1.47 C1,0.84,1.52,0.61,2.09,0.61L2.09,0.61z M79.88,0c8.15,0,14.75,6.6,14.75,14.75c0,8.15-6.6,14.75-14.75,14.75 s-14.75-6.6-14.75-14.75C65.13,6.6,71.74,0,79.88,0L79.88,0z"/></g></svg>