<?xml version="1.0" encoding="utf-8"?><svg version="1.1" id="Layer_1" xmlns="http://www.w3.org/2000/svg" xmlns:xlink="http://www.w3.org/1999/xlink" x="0px" y="0px" viewBox="0 0 105.29 122.88" style="enable-background:new 0 0 105.29 122.88" xml:space="preserve"><style type="text/css">.st0{fill-rule:evenodd;clip-rule:evenodd;}</style><g><path class="st0" d="M11.1,122.88h83.08c5.37,0,12.22-6.91,10.95-12.13L91.19,53.46c-3.02-12.42-7.24-19.22-21.02-19.22H59.56 c6.34-2.74,10.78-9.05,10.78-16.39C70.34,7.99,62.35,0,52.49,0c-9.86,0-17.85,7.99-17.85,17.85c0,7.35,4.44,13.66,10.78,16.39 h-9.35c-13.73,0-19.5,7.72-22.33,19.56l-13.6,56.95C-1.1,115.97,5.73,122.88,11.1,122.88L11.1,122.88z M37.3,71.65h4.44v5.71 l4.66-5.71h5.92l-5.26,5.67l5.5,9.43h-5.47l-3.04-6.2l-2.31,2.52v3.68H37.3V71.65L37.3,71.65z M60.28,81.29v-3.14h6.88v6.42 c-1.32,0.94-2.48,1.59-3.49,1.93c-1.01,0.34-2.21,0.51-3.6,0.51c-1.71,0-3.1-0.31-4.18-0.92c-1.08-0.61-1.91-1.52-2.5-2.73 c-0.59-1.21-0.89-2.59-0.89-4.16c0-1.65,0.33-3.08,0.97-4.3c0.65-1.22,1.6-2.14,2.85-2.77c0.98-0.49,2.29-0.73,3.94-0.73 c1.59,0,2.78,0.15,3.57,0.45c0.79,0.3,1.44,0.77,1.96,1.41c0.52,0.64,0.91,1.44,1.17,2.42l-4.28,0.81 c-0.18-0.57-0.48-1.01-0.9-1.31c-0.42-0.31-0.96-0.46-1.62-0.46c-0.97,0-1.75,0.35-2.33,1.07c-0.58,0.71-0.87,1.84-0.87,3.37 c0,1.63,0.29,2.8,0.88,3.5c0.58,0.7,1.4,1.05,2.45,1.05c0.5,0,0.97-0.07,1.42-0.22c0.45-0.15,0.97-0.41,1.55-0.77v-1.41H60.28 L60.28,81.29z M52.64,53.11c14.25,0,25.8,11.55,25.8,25.8s-11.55,25.8-25.8,25.8c-14.25,0-25.8-11.55-25.8-25.8 S38.4,53.11,52.64,53.11L52.64,53.11z M52.49,10.41c4.11,0,7.44,3.33,7.44,7.44c0,4.11-3.33,7.44-7.44,7.44 c-4.11,0-7.44-3.33-7.44-7.44C45.06,13.74,48.39,10.41,52.49,10.41L52.49,10.41z"/></g></svg>